# xmcd
#
# Track frame offsets:
#	150
#	16854
#	32535
#	47035
#	61090
#	77519
#	90201
#	106107
#	128418
#	143227
#	157784
#	171747
#	186107
#
# Disc length: 2691 seconds
#
# Revision: 1
# Processed by: cddbd v1.5.2PL0 Copyright (c) Steve Scherf et al.
# Submitted via: EasyCDDAExtractor 15.3.0.1
#
DISCID=8e0a810d
DTITLE=Yuri - Mi Tributo Al Festival
DYEAR=2011
DGENRE=Latin
TTITLE0=Al Final
TTITLE1=Ay Amor
TTITLE2=Se Solicita Una Aventura
TTITLE3=Suavemente
TTITLE4=Victima O Ladron
TTITLE5=Como Tu
TTITLE6=Vive
TTITLE7=Que Alegre Va Maria
TTITLE8=Mi Vida
TTITLE9=Si Hoy Me Quieres Olvidar
TTITLE10=Deja
TTITLE11=Vivir Sin Ti
TTITLE12=Siempre Hay Un Mañana
EXTD=
EXTT0=
EXTT1=
EXTT2=
EXTT3=
EXTT4=
EXTT5=
EXTT6=
EXTT7=
EXTT8=
EXTT9=
EXTT10=
EXTT11=
EXTT12=
PLAYORDER=
